<mxfile host="app.diagrams.net" agent="Mozilla/5.0 (X11; Ubuntu; Linux x86_64; rv:132.0) Gecko/20100101 Firefox/132.0" version="24.8.4">
  <diagram name="Page-1" id="O_rEYBbA_CtaJcdQbqsz">
    <mxGraphModel dx="880" dy="1534" grid="1" gridSize="10" guides="1" tooltips="1" connect="1" arrows="1" fold="1" page="1" pageScale="1" pageWidth="850" pageHeight="1100" math="0" shadow="0">
      <root>
        <mxCell id="0" />
        <mxCell id="1" parent="0" />
        <mxCell id="C4ZW3G70p_aI0YII5zNh-1" value="&lt;div&gt;opa&lt;/div&gt;" style="rounded=0;whiteSpace=wrap;html=1;" vertex="1" parent="1">
          <mxGeometry y="350" width="120" height="60" as="geometry" />
        </mxCell>
        <mxCell id="C4ZW3G70p_aI0YII5zNh-6" style="edgeStyle=orthogonalEdgeStyle;rounded=0;orthogonalLoop=1;jettySize=auto;html=1;exitX=1;exitY=0.5;exitDx=0;exitDy=0;entryX=0;entryY=0.5;entryDx=0;entryDy=0;" edge="1" parent="1" source="C4ZW3G70p_aI0YII5zNh-2" target="C4ZW3G70p_aI0YII5zNh-5">
          <mxGeometry relative="1" as="geometry" />
        </mxCell>
        <mxCell id="C4ZW3G70p_aI0YII5zNh-2" value="kafka" style="rounded=0;whiteSpace=wrap;html=1;" vertex="1" parent="1">
          <mxGeometry x="370" y="110" width="120" height="60" as="geometry" />
        </mxCell>
        <mxCell id="C4ZW3G70p_aI0YII5zNh-4" style="edgeStyle=orthogonalEdgeStyle;rounded=0;orthogonalLoop=1;jettySize=auto;html=1;entryX=0;entryY=0.5;entryDx=0;entryDy=0;" edge="1" parent="1" source="C4ZW3G70p_aI0YII5zNh-3" target="C4ZW3G70p_aI0YII5zNh-2">
          <mxGeometry relative="1" as="geometry" />
        </mxCell>
        <mxCell id="C4ZW3G70p_aI0YII5zNh-8" style="edgeStyle=orthogonalEdgeStyle;rounded=0;orthogonalLoop=1;jettySize=auto;html=1;exitX=0.5;exitY=1;exitDx=0;exitDy=0;entryX=0;entryY=0.5;entryDx=0;entryDy=0;" edge="1" parent="1" source="C4ZW3G70p_aI0YII5zNh-3" target="C4ZW3G70p_aI0YII5zNh-7">
          <mxGeometry relative="1" as="geometry" />
        </mxCell>
        <mxCell id="C4ZW3G70p_aI0YII5zNh-9" style="edgeStyle=orthogonalEdgeStyle;rounded=0;orthogonalLoop=1;jettySize=auto;html=1;exitX=0;exitY=0.75;exitDx=0;exitDy=0;entryX=0.25;entryY=0;entryDx=0;entryDy=0;" edge="1" parent="1" source="C4ZW3G70p_aI0YII5zNh-3" target="C4ZW3G70p_aI0YII5zNh-1">
          <mxGeometry relative="1" as="geometry" />
        </mxCell>
        <mxCell id="C4ZW3G70p_aI0YII5zNh-10" value="authz" style="edgeLabel;html=1;align=center;verticalAlign=middle;resizable=0;points=[];" vertex="1" connectable="0" parent="C4ZW3G70p_aI0YII5zNh-9">
          <mxGeometry x="0.0603" y="-1" relative="1" as="geometry">
            <mxPoint as="offset" />
          </mxGeometry>
        </mxCell>
        <mxCell id="C4ZW3G70p_aI0YII5zNh-3" value="rideplus" style="rounded=0;whiteSpace=wrap;html=1;" vertex="1" parent="1">
          <mxGeometry x="150" y="110" width="120" height="60" as="geometry" />
        </mxCell>
        <mxCell id="C4ZW3G70p_aI0YII5zNh-5" value="zookeeper" style="rounded=0;whiteSpace=wrap;html=1;" vertex="1" parent="1">
          <mxGeometry x="560" y="50" width="120" height="60" as="geometry" />
        </mxCell>
        <mxCell id="C4ZW3G70p_aI0YII5zNh-7" value="redis" style="rounded=0;whiteSpace=wrap;html=1;" vertex="1" parent="1">
          <mxGeometry x="350" y="290" width="120" height="60" as="geometry" />
        </mxCell>
        <mxCell id="C4ZW3G70p_aI0YII5zNh-11" value="sso" style="rounded=0;whiteSpace=wrap;html=1;" vertex="1" parent="1">
          <mxGeometry x="160" y="-10" width="120" height="60" as="geometry" />
        </mxCell>
        <mxCell id="C4ZW3G70p_aI0YII5zNh-12" value="&lt;div&gt;Accounting&lt;/div&gt;" style="rounded=0;whiteSpace=wrap;html=1;" vertex="1" parent="1">
          <mxGeometry x="550" y="210" width="120" height="60" as="geometry" />
        </mxCell>
        <mxCell id="C4ZW3G70p_aI0YII5zNh-13" value="efloat" style="rounded=0;whiteSpace=wrap;html=1;" vertex="1" parent="1">
          <mxGeometry x="700" y="300" width="120" height="60" as="geometry" />
        </mxCell>
        <mxCell id="C4ZW3G70p_aI0YII5zNh-14" value="authz" style="rounded=0;whiteSpace=wrap;html=1;" vertex="1" parent="1">
          <mxGeometry x="360" y="200" width="120" height="60" as="geometry" />
        </mxCell>
      </root>
    </mxGraphModel>
  </diagram>
</mxfile>
